<svg xmlns="http://www.w3.org/2000/svg" viewBox="0 0 100 100">
  <defs>
    <linearGradient id="a" x1="50" y1="978.29" x2="50" y2="1077.74" gradientTransform="translate(0 -978)" gradientUnits="userSpaceOnUse">
      <stop offset="0" stop-color="#fff"/>
      <stop offset="1" stop-color="#fff" stop-opacity="0"/>
    </linearGradient>
  </defs>
  <path d="M96.53 10.81 75.93.91a6.25 6.25 0 0 0-7.1 1.2L1.32 63.61a4.25 4.25 0 0 0 0 6.2l5.51 5a4.09 4.09 0 0 0 5.3.2l81.19-61.6a4.11 4.11 0 0 1 6.6 3.3v-.2a6 6 0 0 0-3.39-5.7Z" style="fill:#a9291b"/>
  <path d="m96.53 89.21-20.6 9.9a6.25 6.25 0 0 1-7.1-1.2L1.32 36.41a4.25 4.25 0 0 1 0-6.2l5.51-5a4.09 4.09 0 0 1 5.3-.2l81.19 61.6a4.11 4.11 0 0 0 6.6-3.3v.2a6 6 0 0 1-3.39 5.7Z" style="fill:#cc3221"/>
  <path d="M75.93 99.11a6.25 6.25 0 0 1-7.1-1.2 3.62 3.62 0 0 0 6.2-2.6V4.71a3.62 3.62 0 0 0-6.2-2.6 6.09 6.09 0 0 1 7.1-1.2l20.6 9.9a6.08 6.08 0 0 1 3.5 5.6v67.2a6.25 6.25 0 0 1-3.5 5.6Z" style="fill:#f05645"/>
  <g style="opacity:.25">
    <path d="M70.93 99.31a6.23 6.23 0 0 0 5-.2l20.6-9.9a6.08 6.08 0 0 0 3.5-5.6v-67.2a6.25 6.25 0 0 0-3.5-5.6L75.83.91a6.17 6.17 0 0 0-6.4.6 4 4 0 0 0-.7.6L29.32 38 12.13 25a4.22 4.22 0 0 0-5.3.2l-5.5 5a4.23 4.23 0 0 0 0 6.2L16.23 50 1.32 63.61a4.25 4.25 0 0 0 0 6.2l5.51 5a4.09 4.09 0 0 0 5.3.2l17.2-13 39.4 36a7.85 7.85 0 0 0 2.2 1.3Zm4.1-72L45 50l30 22.7Z" style="fill-rule:evenodd;fill:url(#a)"/>
  </g>
</svg>
