<svg version="1.2" baseProfile="tiny-ps" xmlns="http://www.w3.org/2000/svg" viewBox="0 0 1263 1500" width="1263" height="1500">
	<title>Apple_logo_black-svg</title>
	<style>
		tspan { white-space:pre }
		.shp0 { fill: #ffffff } 
	</style>
	<path id="Layer" class="shp0" d="M1053 1440C971.7 1518.9 882 1506.6 796.5 1469.4C705.6 1431.45 622.5 1429.05 526.5 1469.4C406.95 1521 343.5 1506 271.5 1440C-135 1021.5 -75 384 387 360C499.05 366 577.5 421.95 643.5 426.6C741.6 406.65 835.5 349.5 940.5 357C1066.65 367.2 1161 417 1224 506.55C964.5 662.55 1026 1004.55 1264.35 1100.55C1216.65 1225.8 1155.45 1349.55 1052.85 1441.05L1053 1440ZM634.5 355.5C622.35 169.5 773.1 16.5 946.5 1.5C970.35 216 751.5 376.5 634.5 355.5Z" />
</svg>